<svg width="24" height="24" viewBox="0 0 24 24" fill="none" xmlns="http://www.w3.org/2000/svg">
<g id="vuesax/bold/24-support">
<g id="24-support">
<path id="Vector" d="M18 2.00003H6C4.34 2.00003 3 3.33003 3 4.97003V15.88C3 17.52 4.34 18.85 6 18.85H6.76C7.56 18.85 8.32 19.16 8.88 19.72L10.59 21.41C11.37 22.18 12.64 22.18 13.42 21.41L15.13 19.72C15.69 19.16 16.46 18.85 17.25 18.85H18C19.66 18.85 21 17.52 21 15.88V4.97003C21 3.33003 19.66 2.00003 18 2.00003ZM10.38 13.01C10.79 13.01 11.13 13.35 11.13 13.76C11.13 14.17 10.79 14.51 10.38 14.51H7.7C7.26 14.51 6.85 14.3 6.59 13.94C6.34 13.6 6.28 13.18 6.4 12.78C6.75 11.71 7.61 11.13 8.37 10.61C9.17 10.07 9.62 9.73003 9.62 9.15003C9.62 8.63003 9.2 8.21003 8.68 8.21003C8.16 8.21003 7.75 8.64003 7.75 9.16003C7.75 9.57003 7.41 9.91003 7 9.91003C6.59 9.91003 6.25 9.57003 6.25 9.16003C6.25 7.82003 7.34 6.72003 8.69 6.72003C10.04 6.72003 11.13 7.81003 11.13 9.16003C11.13 10.57 10.07 11.29 9.22 11.87C8.69 12.23 8.19 12.57 7.94 13.02H10.38V13.01ZM17 13.08H16.79V13.77C16.79 14.18 16.45 14.52 16.04 14.52C15.63 14.52 15.29 14.18 15.29 13.77V13.08H13.33C13.33 13.08 13.33 13.08 13.32 13.08C12.83 13.08 12.38 12.82 12.13 12.4C11.88 11.97 11.88 11.44 12.13 11.02C12.81 9.85003 13.6 8.52003 14.32 7.36003C14.64 6.85003 15.25 6.62003 15.82 6.78003C16.39 6.95003 16.79 7.47003 16.78 8.07003V11.59H17C17.41 11.59 17.75 11.93 17.75 12.34C17.75 12.75 17.41 13.08 17 13.08Z" fill="#637381"/>
<path id="Vector_2" d="M15.29 11.58V8.64003C14.7 9.60003 14.09 10.63 13.54 11.57H15.29V11.58Z" fill="#637381"/>
</g>
</g>
</svg>
