<svg width="24" height="24" viewBox="0 0 24 24" fill="none" xmlns="http://www.w3.org/2000/svg">
<g id="Frame" clip-path="url(#clip0_26093_2837)">
<g id="Group">
<path id="Vector" d="M4.53592 8.22244C4.81849 7.869 5.01021 7.39448 4.95967 6.90956C4.54605 6.93014 4.0413 7.18247 3.74908 7.53614C3.48668 7.83905 3.25446 8.33344 3.31502 8.79802C3.77927 8.83828 4.24319 8.56594 4.53592 8.22244ZM4.95438 8.88872C4.28008 8.84855 3.70675 9.27141 3.38472 9.27141C3.06255 9.27141 2.56942 8.90897 2.03608 8.91872C1.34191 8.92894 0.6978 9.32142 0.345534 9.94566C-0.379013 11.1945 0.154331 13.0469 0.858909 14.0639C1.20105 14.5671 1.61346 15.1211 2.15678 15.1012C2.67016 15.081 2.87139 14.7688 3.49539 14.7688C4.11897 14.7688 4.30024 15.1012 4.84366 15.0911C5.40724 15.081 5.75955 14.5877 6.10169 14.084C6.49422 13.5104 6.65491 12.9566 6.66499 12.9262C6.65486 12.9161 5.57828 12.5031 5.5683 11.2647C5.55813 10.2278 6.41355 9.73448 6.45382 9.70392C5.97082 8.98955 5.21603 8.90897 4.95438 8.88872ZM10.8257 7.48538C12.2913 7.48538 13.3118 8.49563 13.3118 9.96647C13.3118 11.4426 12.2703 12.4581 10.789 12.4581H9.16628V15.0386H7.99389V7.48538H10.8257ZM9.16624 11.474H10.5115C11.5322 11.474 12.1131 10.9244 12.1131 9.97172C12.1131 9.01912 11.5322 8.47472 10.5167 8.47472H9.16624V11.474ZM13.6181 13.4736C13.6181 12.5104 14.3562 11.9189 15.6649 11.8456L17.1723 11.7567V11.3327C17.1723 10.7203 16.7588 10.3539 16.068 10.3539C15.4135 10.3539 15.0052 10.6679 14.9059 11.16H13.8381C13.9009 10.1654 14.7488 9.43261 16.1098 9.43261C17.4445 9.43261 18.2977 10.1393 18.2977 11.2437V15.0386H17.2141V14.133H17.188C16.8688 14.7455 16.1726 15.1328 15.4503 15.1328C14.3719 15.1328 13.6181 14.4628 13.6181 13.4736ZM17.1723 12.9763V12.5419L15.8165 12.6256C15.1413 12.6728 14.7592 12.9711 14.7592 13.4422C14.7592 13.9237 15.157 14.2378 15.7642 14.2378C16.5546 14.2377 17.1723 13.6934 17.1723 12.9763ZM19.3206 17.0643V16.1483C19.4042 16.1692 19.5926 16.1692 19.6869 16.1692C20.2103 16.1692 20.493 15.9494 20.6656 15.3841C20.6656 15.3736 20.7652 15.0491 20.7652 15.0438L18.7762 9.53203H20.0009L21.3934 14.0127H21.4142L22.8067 9.53203H24L21.9375 15.3264C21.4666 16.6613 20.9222 17.0905 19.7811 17.0905C19.6869 17.0905 19.4042 17.08 19.3206 17.0643Z" fill="#454F5B"/>
</g>
</g>
<defs>
<clipPath id="clip0_26093_2837">
<rect width="24" height="24" fill="white"/>
</clipPath>
</defs>
</svg>
