<svg width="19" height="19" viewBox="0 0 19 19" fill="none" xmlns="http://www.w3.org/2000/svg">
<g id="vuesax/bold/camera">
<g id="camera">
<path id="Vector" d="M13.7988 5.07911C13.3555 5.07911 12.9486 4.82479 12.7452 4.43241L12.222 3.37881C11.8878 2.71758 11.0158 2.17261 10.2747 2.17261H8.61068C7.86226 2.17261 6.99031 2.71758 6.65606 3.37881L6.13289 4.43241C5.92943 4.82479 5.52252 5.07911 5.07928 5.07911C3.5025 5.07911 2.2527 6.40884 2.35443 7.97835L2.73228 13.9803C2.81947 15.4771 3.62603 16.7051 5.63151 16.7051H13.2466C15.252 16.7051 16.0513 15.4771 16.1458 13.9803L16.5236 7.97835C16.6254 6.40884 15.3756 5.07911 13.7988 5.07911ZM8.3491 5.98739H10.529C10.8269 5.98739 11.0739 6.23445 11.0739 6.53236C11.0739 6.83028 10.8269 7.07733 10.529 7.07733H8.3491C8.05118 7.07733 7.80413 6.83028 7.80413 6.53236C7.80413 6.23445 8.05118 5.98739 8.3491 5.98739ZM9.43903 13.8858C8.08751 13.8858 6.98304 12.7886 6.98304 11.4298C6.98304 10.071 8.08024 8.97383 9.43903 8.97383C10.7978 8.97383 11.895 10.071 11.895 11.4298C11.895 12.7886 10.7906 13.8858 9.43903 13.8858Z" fill="#D44F05"/>
</g>
</g>
</svg>
