<svg width="22" height="18" viewBox="0 0 22 18" fill="none" xmlns="http://www.w3.org/2000/svg">
<g id="elements">
<g id="Union">
<path d="M3.5 15.25C3.5 13.8693 4.61929 12.75 6 12.75C7.38071 12.75 8.5 13.8693 8.5 15.25C8.5 16.6307 7.38071 17.75 6 17.75C4.61929 17.75 3.5 16.6307 3.5 15.25Z" fill="#637381"/>
<path d="M13.5 15.25C13.5 13.8693 14.6193 12.75 16 12.75C17.3807 12.75 18.5 13.8693 18.5 15.25C18.5 16.6307 17.3807 17.75 16 17.75C14.6193 17.75 13.5 16.6307 13.5 15.25Z" fill="#637381"/>
</g>
<path id="Subtract" fill-rule="evenodd" clip-rule="evenodd" d="M1.22727 0.25C0.968061 0.25 0.719468 0.352082 0.53619 0.533786C0.352912 0.71549 0.249965 0.961929 0.25 1.21888L0.251838 14.7814C0.251911 15.3164 0.689429 15.75 1.22911 15.75H2.28304C2.26125 15.5864 2.25 15.4195 2.25 15.25C2.25 13.1789 3.92893 11.5 6 11.5C8.07107 11.5 9.75 13.1789 9.75 15.25C9.75 15.4195 9.73875 15.5864 9.71696 15.75H12.283C12.2612 15.5864 12.25 15.4195 12.25 15.25C12.25 13.1789 13.9289 11.5 16 11.5C18.0711 11.5 19.75 13.1789 19.75 15.25C19.75 15.4195 19.7388 15.5864 19.717 15.75H20.7727C21.3125 15.75 21.75 15.3163 21.75 14.7812V8C21.75 7.80124 21.6883 7.60729 21.5733 7.44446L18.1529 2.60071C17.97 2.34174 17.6712 2.1875 17.3523 2.1875H14.4205V1.21875C14.4205 0.683724 13.9829 0.25 13.4432 0.25H1.22727ZM14.4219 7.03125V4.125H16.8449L18.8971 7.03125H14.4219ZM4 4V8H6V4H4ZM8 4V8H10V4H8Z" fill="#637381"/>
</g>
</svg>
