<svg width="32" height="32" viewBox="0 0 32 32" fill="none" xmlns="http://www.w3.org/2000/svg">
<rect x="0.220513" y="0.220513" width="31.559" height="31.559" rx="15.7795" fill="white"/>
<rect x="0.220513" y="0.220513" width="31.559" height="31.559" rx="15.7795" stroke="#C4CDD5" stroke-width="0.441026"/>
<path d="M21.831 13.5756C21.1211 10.4205 18.3966 9 16.0034 9C16.0034 9 16.0034 9 15.9966 9C13.6101 9 10.8789 10.4137 10.169 13.5688C9.37801 17.0927 11.5144 20.0771 13.4479 21.9551C14.1645 22.6517 15.0839 23 16.0034 23C16.9228 23 17.8423 22.6517 18.5521 21.9551C20.4856 20.0771 22.622 17.0995 21.831 13.5756ZM16.0034 16.9971C14.827 16.9971 13.8738 16.0341 13.8738 14.8459C13.8738 13.6576 14.827 12.6946 16.0034 12.6946C17.1797 12.6946 18.133 13.6576 18.133 14.8459C18.133 16.0341 17.1797 16.9971 16.0034 16.9971Z" fill="#3B302A"/>
</svg>
