<svg width="17" height="17" viewBox="0 0 17 17" fill="none" xmlns="http://www.w3.org/2000/svg">
<path d="M14.575 15.25H2.42498C2.14823 15.25 1.91873 15.0205 1.91873 14.7437C1.91873 14.467 2.14823 14.2375 2.42498 14.2375H14.575C14.8517 14.2375 15.0812 14.467 15.0812 14.7437C15.0812 15.0205 14.8517 15.25 14.575 15.25Z" fill="#D44F05"/>
<path d="M13.2385 2.749C11.929 1.4395 10.6465 1.40575 9.30326 2.749L8.48651 3.56575C8.41901 3.63325 8.39201 3.74125 8.41901 3.83575C8.93201 5.6245 10.363 7.0555 12.1518 7.5685C12.1788 7.57525 12.2058 7.582 12.2328 7.582C12.307 7.582 12.3745 7.555 12.4285 7.501L13.2385 6.68425C13.9068 6.02275 14.2308 5.3815 14.2308 4.7335C14.2375 4.06525 13.9135 3.41725 13.2385 2.749Z" fill="#D44F05"/>
<path d="M10.9368 8.18273C10.741 8.08823 10.552 7.99373 10.3698 7.88573C10.2213 7.79798 10.0795 7.70348 9.93775 7.60223C9.823 7.52798 9.688 7.41998 9.55975 7.31198C9.54625 7.30523 9.499 7.26473 9.445 7.21073C9.22225 7.02173 8.9725 6.77873 8.74975 6.50873C8.7295 6.49523 8.69575 6.44798 8.6485 6.38723C8.581 6.30623 8.46625 6.17123 8.365 6.01598C8.284 5.91473 8.1895 5.76623 8.10175 5.61773C7.99375 5.43548 7.89925 5.25323 7.80475 5.06423C7.79045 5.03359 7.77662 5.00311 7.7632 4.9728C7.66359 4.74781 7.37021 4.68203 7.19622 4.85602L3.3295 8.72273C3.24175 8.81048 3.16075 8.97923 3.1405 9.09398L2.776 11.6792C2.7085 12.1382 2.83675 12.5702 3.12025 12.8605C3.36325 13.0967 3.70075 13.225 4.06525 13.225C4.14625 13.225 4.22725 13.2182 4.30825 13.2047L6.90025 12.8402C7.02175 12.82 7.1905 12.739 7.2715 12.6512L11.1334 8.78935C11.3086 8.61415 11.2425 8.31346 11.0146 8.21622C10.989 8.20528 10.963 8.19412 10.9368 8.18273Z" fill="#D44F05"/>
</svg>
