<svg width="20" height="21" viewBox="0 0 20 21" fill="none" xmlns="http://www.w3.org/2000/svg">
<path d="M12.3752 3.79165V6.95831H11.1252V3.79165C11.1252 3.56665 10.9252 3.45831 10.7918 3.45831C10.7502 3.45831 10.7085 3.46665 10.6668 3.48331L4.0585 5.97498C3.61683 6.14165 3.3335 6.55831 3.3335 7.03331V7.59165C2.57516 8.15831 2.0835 9.06665 2.0835 10.0916V7.03331C2.0835 6.04165 2.69183 5.15831 3.61683 4.80831L10.2335 2.30831C10.4168 2.24165 10.6085 2.20831 10.7918 2.20831C11.6252 2.20831 12.3752 2.88331 12.3752 3.79165Z" fill="#637381"/>
<path d="M17.9167 12.5834V13.4167C17.9167 13.6417 17.7417 13.825 17.5083 13.8334H16.2917C15.85 13.8334 15.45 13.5084 15.4167 13.075C15.3917 12.8167 15.4917 12.575 15.6583 12.4084C15.8083 12.25 16.0167 12.1667 16.2417 12.1667H17.5C17.7417 12.175 17.9167 12.3584 17.9167 12.5834Z" fill="#637381"/>
<path d="M16.2335 11.2916H17.0835C17.5418 11.2916 17.9168 10.9166 17.9168 10.4583V10.0916C17.9168 8.36665 16.5085 6.95831 14.7835 6.95831H5.21683C4.5085 6.95831 3.8585 7.19165 3.3335 7.59165C2.57516 8.15831 2.0835 9.06665 2.0835 10.0916V15.7C2.0835 17.425 3.49183 18.8333 5.21683 18.8333H14.7835C16.5085 18.8333 17.9168 17.425 17.9168 15.7V15.5416C17.9168 15.0833 17.5418 14.7083 17.0835 14.7083H16.3585C15.5585 14.7083 14.7918 14.2166 14.5835 13.4416C14.4085 12.8083 14.6168 12.2 15.0335 11.7916C15.3418 11.475 15.7668 11.2916 16.2335 11.2916ZM11.6668 11.125H5.8335C5.49183 11.125 5.2085 10.8416 5.2085 10.5C5.2085 10.1583 5.49183 9.87498 5.8335 9.87498H11.6668C12.0085 9.87498 12.2918 10.1583 12.2918 10.5C12.2918 10.8416 12.0085 11.125 11.6668 11.125Z" fill="#637381"/>
</svg>
