<svg width="26" height="24" viewBox="0 0 26 24" fill="none" xmlns="http://www.w3.org/2000/svg">
<g id="Frame">
<g id="Group">
<path id="Vector" d="M10.9661 15.0203H11.0661V14.9203V12.2133H12.5612C13.2364 12.2133 13.814 12.0118 14.2821 11.6006C14.7659 11.1889 15.0111 10.6753 15.0111 10.0566C15.0111 9.4513 14.7655 8.93805 14.2823 8.52214C13.8097 8.10663 13.2323 7.90003 12.5612 7.90003H10H9.9V8.00003V14.9203V15.0203H10H10.9661ZM13.4697 10.8354L13.4697 10.8354L13.4689 10.836C13.2379 11.053 12.9412 11.1656 12.5813 11.1656H11.0661V8.95696H12.5813C12.9459 8.95696 13.2368 9.06929 13.4675 9.29447L13.4675 9.2945L13.4697 9.29648C13.7079 9.51572 13.8248 9.77242 13.8248 10.0613C13.8248 10.3554 13.7074 10.6165 13.4697 10.8354ZM19.7467 15.0203H19.8467V14.9203V12.0021C19.8467 11.3656 19.6306 10.8544 19.1927 10.4808C18.7569 10.109 18.1677 9.92887 17.4371 9.92887C16.4963 9.92887 15.7693 10.2493 15.2788 10.9047L15.2113 10.9949L15.3089 11.0512L16.1593 11.5422L16.2366 11.5868L16.2897 11.5151C16.5819 11.1202 16.9792 10.9256 17.4874 10.9256C17.8231 10.9256 18.1123 11.0251 18.3601 11.2273C18.6064 11.4284 18.7209 11.6605 18.7209 11.9373V11.9822C18.3597 11.8254 17.9193 11.7493 17.4069 11.7493C16.7244 11.7493 16.1632 11.8956 15.7384 12.2034C15.3099 12.5092 15.0929 12.9285 15.0929 13.4519C15.0929 13.9475 15.2995 14.3598 15.7035 14.6876C16.1065 15.0147 16.6029 15.1732 17.1905 15.1732C17.8112 15.1732 18.3264 14.9474 18.7259 14.4961V14.9203V15.0203H18.8259H19.7467ZM16.5698 13.9638L16.5689 13.9631C16.3757 13.8266 16.2892 13.661 16.2892 13.4658C16.2892 13.2526 16.3958 13.063 16.6422 12.8959C16.8841 12.7377 17.1908 12.6533 17.568 12.6533C18.0676 12.6533 18.4486 12.7514 18.7248 12.9339C18.7108 13.2543 18.5657 13.5356 18.282 13.7843C17.9825 14.0469 17.6434 14.1764 17.261 14.1764C16.9934 14.1764 16.7627 14.1033 16.5698 13.9638ZM25.0904 10.2244L25.1578 10.0817H25H23.9483H23.8829L23.8567 10.1416L22.4477 13.3579L21.0002 10.1407L20.9737 10.0817H20.909H19.8574H19.6986L19.7672 10.2249L21.8695 14.6135L20.6939 16.9552L20.6212 17.1H20.7833H21.7796H21.843L21.87 17.0427L25.0904 10.2244Z" fill="#454F5B" stroke="#454F5B" stroke-width="0.2"/>
<path id="Vector_2" d="M7.62356 10.4852H3.93042V11.9995L6.05737 12C5.97112 12.5039 5.69348 12.9334 5.26809 13.2197V13.22L5.26856 13.2197L5.23026 14.1248L6.53465 14.2018L6.53414 14.2022C7.2734 13.518 7.69701 12.5066 7.69701 11.3117C7.69725 11.0345 7.67266 10.7579 7.62356 10.4852Z" fill="#0085F7"/>
<path id="Vector_3" d="M5.26852 13.2197L5.26806 13.22C4.9157 13.4575 4.46199 13.5965 3.93132 13.5965C2.9057 13.5965 2.03565 12.9054 1.72407 11.9738H1.72393L1.72407 11.9743L0.635118 11.8019L0.418274 12.9874C1.06538 14.2712 2.39513 15.1521 3.93137 15.1521C4.99295 15.1521 5.88484 14.8031 6.53415 14.2022C6.53434 14.2021 6.53452 14.2019 6.53467 14.2017L5.26852 13.2197Z" fill="#00A94B"/>
<path id="Vector_4" d="M1.60106 11.2222C1.60106 10.9606 1.64466 10.7077 1.72406 10.47L1.38403 9.4568H0.418031C0.150516 9.98775 0 10.587 0 11.2222C0 11.8573 0.150984 12.4566 0.418031 12.9875L0.418219 12.9874L1.72406 11.9743C1.64275 11.7318 1.60121 11.4779 1.60106 11.2222Z" fill="#FFBB00"/>
<path id="Vector_5" d="M3.93131 7.29178C2.3954 7.29178 1.06509 8.17284 0.41803 9.45684L1.72401 10.4701C2.03559 9.53855 2.90564 8.84747 3.93126 8.84747C4.51083 8.84747 5.02987 9.04711 5.43965 9.43716L6.56165 8.31609C5.88023 7.68136 4.99181 7.29178 3.93131 7.29178Z" fill="#FF4031"/>
</g>
</g>
</svg>
