<svg width="20" height="21" viewBox="0 0 20 21" fill="none" xmlns="http://www.w3.org/2000/svg">
<path d="M8.95815 2.54166C9.54149 2.05 10.4832 2.05 11.0498 2.54166L12.3665 3.66666C12.6165 3.875 13.0915 4.05 13.4248 4.05H14.8415C15.7248 4.05 16.4498 4.775 16.4498 5.65833V7.075C16.4498 7.40833 16.6248 7.875 16.8332 8.125L17.9582 9.44166C18.4498 10.025 18.4498 10.9667 17.9582 11.5333L16.8332 12.85C16.6248 13.1 16.4498 13.5667 16.4498 13.9V15.3167C16.4498 16.2 15.7248 16.925 14.8415 16.925H13.4248C13.0915 16.925 12.6248 17.1 12.3748 17.3083L11.0582 18.4333C10.4748 18.925 9.53315 18.925 8.96649 18.4333L7.64982 17.3083C7.39982 17.1 6.92482 16.925 6.59982 16.925H5.14149C4.25815 16.925 3.53315 16.2 3.53315 15.3167V13.8917C3.53315 13.5667 3.36649 13.0917 3.15815 12.85L2.03315 11.525C1.54982 10.95 1.54982 10.0167 2.03315 9.44166L3.15815 8.11666C3.36649 7.86666 3.53315 7.4 3.53315 7.075V5.66666C3.53315 4.78333 4.25815 4.05833 5.14149 4.05833H6.58315C6.91649 4.05833 7.38315 3.88333 7.63315 3.675L8.95815 2.54166Z" fill="#D44F05"/>
<path d="M6.66675 9.66669H6.67423" stroke="#FDF5F0" stroke-width="1.66667" stroke-linecap="round" stroke-linejoin="round"/>
<path d="M10.8408 8L8.34082 13" stroke="#FDF5F0" stroke-width="1.25" stroke-miterlimit="10" stroke-linecap="round" stroke-linejoin="round"/>
<path d="M12.5 12.1667H12.5075" stroke="#FDF5F0" stroke-width="1.66667" stroke-linecap="round" stroke-linejoin="round"/>
</svg>
