<svg width="32" height="33" viewBox="0 0 32 33" fill="none" xmlns="http://www.w3.org/2000/svg">
<path d="M14.3329 3.79737C15.2662 3.0107 16.7729 3.0107 17.6795 3.79737L19.7862 5.59737C20.1862 5.9307 20.9462 6.2107 21.4795 6.2107H23.7462C25.1595 6.2107 26.3195 7.3707 26.3195 8.78403V11.0507C26.3195 11.584 26.5995 12.3307 26.9329 12.7307L28.7329 14.8374C29.5195 15.7707 29.5195 17.2774 28.7329 18.184L26.9329 20.2907C26.5995 20.6907 26.3195 21.4374 26.3195 21.9707V24.2374C26.3195 25.6507 25.1595 26.8107 23.7462 26.8107H21.4795C20.9462 26.8107 20.1995 27.0907 19.7995 27.424L17.6929 29.224C16.7595 30.0107 15.2529 30.0107 14.3462 29.224L12.2395 27.424C11.8395 27.0907 11.0795 26.8107 10.5595 26.8107H8.22618C6.81285 26.8107 5.65285 25.6507 5.65285 24.2374V21.9574C5.65285 21.4374 5.38618 20.6774 5.05285 20.2907L3.25285 18.1707C2.47952 17.2507 2.47952 15.7574 3.25285 14.8374L5.05285 12.7174C5.38618 12.3174 5.65285 11.5707 5.65285 11.0507V8.79737C5.65285 7.38403 6.81285 6.22403 8.22618 6.22403H10.5329C11.0662 6.22403 11.8129 5.94403 12.2129 5.6107L14.3329 3.79737Z" fill="white"/>
<path d="M10.667 15.1976H10.679" stroke="#D44F05" stroke-width="2.66667" stroke-linecap="round" stroke-linejoin="round"/>
<path d="M17.3447 12.5306L13.3447 20.5306" stroke="#D44F05" stroke-width="2" stroke-miterlimit="10" stroke-linecap="round" stroke-linejoin="round"/>
<path d="M20 19.1976H20.012" stroke="#D44F05" stroke-width="2.66667" stroke-linecap="round" stroke-linejoin="round"/>
</svg>
