<svg width="24" height="24" viewBox="0 0 24 24" fill="none" xmlns="http://www.w3.org/2000/svg">
<g id="Frame">
<g id="Group">
<path id="Vector" d="M18.5645 7.51875C18.5645 7.45652 18.5567 7.39454 18.5413 7.33425C18.3 6.39548 17.8587 5.51993 17.2476 4.76758C16.6364 4.01522 15.8699 3.40382 15.0005 2.97525V4.5C15.0005 4.69891 14.9215 4.88968 14.7809 5.03033C14.6402 5.17098 14.4495 5.25 14.2505 5.25C14.0516 5.25 13.8609 5.17098 13.7202 5.03033C13.5796 4.88968 13.5005 4.69891 13.5005 4.5V2.25C13.5005 2.05109 13.4215 1.86032 13.2809 1.71967C13.1402 1.57902 12.9495 1.5 12.7505 1.5H11.2505C11.0516 1.5 10.8609 1.57902 10.7202 1.71967C10.5796 1.86032 10.5005 2.05109 10.5005 2.25V4.5C10.5005 4.69891 10.4215 4.88968 10.2809 5.03033C10.1402 5.17098 9.94946 5.25 9.75054 5.25C9.55163 5.25 9.36087 5.17098 9.22021 5.03033C9.07956 4.88968 9.00054 4.69891 9.00054 4.5V2.97525C8.13104 3.40386 7.36446 4.01536 6.75333 4.76786C6.14219 5.52036 5.70093 6.39607 5.45979 7.335C5.44467 7.39527 5.43861 7.45745 5.44179 7.5195C5.1636 7.56544 4.91288 7.71436 4.73945 7.93668C4.56603 8.15899 4.4826 8.43842 4.50575 8.71943C4.5289 9.00044 4.65693 9.26245 4.8644 9.45339C5.07187 9.64432 5.34358 9.75021 5.62554 9.75H18.3755C18.6588 9.75278 18.9326 9.64839 19.1422 9.45775C19.3517 9.26712 19.4814 9.00433 19.5053 8.72207C19.5292 8.43981 19.4456 8.15894 19.2711 7.93578C19.0966 7.71262 18.8442 7.56365 18.5645 7.51875ZM17.2505 11.25H6.75054V12C6.75054 13.4325 7.32804 14.73 8.26029 15.678C8.25804 15.7027 8.25054 15.7253 8.25054 15.75V17.013L11.9818 18.6705L15.7505 16.7872V15.75C15.7505 15.7253 15.743 15.7027 15.7408 15.678C16.7085 14.6985 17.2509 13.3769 17.2505 12V11.25Z" fill="#637381"/>
<path id="Vector_2" d="M7.50011 22.5H16.5001V18.0885L12.3354 20.1713C12.2364 20.2207 12.1277 20.2476 12.0171 20.25C11.9065 20.2525 11.7967 20.2305 11.6956 20.1855L7.50011 18.3203V22.5ZM6.00011 18.084C4.21099 18.6304 2.66574 19.7785 1.62611 21.3337C1.55075 21.4467 1.50747 21.578 1.50088 21.7136C1.4943 21.8492 1.52465 21.9841 1.58871 22.1038C1.65276 22.2235 1.74812 22.3236 1.86461 22.3934C1.98109 22.4632 2.11433 22.5 2.25011 22.5H6.00011V18.084ZM22.3741 21.3337C21.3345 19.7785 19.7892 18.6304 18.0001 18.084V22.5H21.7501C21.8859 22.5 22.0191 22.4632 22.1356 22.3934C22.2521 22.3236 22.3475 22.2235 22.4115 22.1038C22.4756 21.9841 22.5059 21.8492 22.4993 21.7136C22.4928 21.578 22.4495 21.4467 22.3741 21.3337Z" fill="#637381"/>
</g>
</g>
</svg>
