<svg width="19" height="22" viewBox="0 0 19 22" fill="none" xmlns="http://www.w3.org/2000/svg">
<path d="M18.7324 7.19024C17.6085 2.2322 13.2947 0 9.50535 0C9.50535 0 9.50535 0 9.49465 0C5.71605 0 1.39153 2.22146 0.267583 7.17951C-0.984814 12.7171 2.39773 17.4068 5.45914 20.358C6.5938 21.4527 8.04957 22 9.50535 22C10.9611 22 12.4169 21.4527 13.5409 20.358C16.6023 17.4068 19.9848 12.7278 18.7324 7.19024ZM9.50535 12.5668C7.64281 12.5668 6.13351 11.0537 6.13351 9.18634C6.13351 7.31903 7.64281 5.80585 9.50535 5.80585C11.3679 5.80585 12.8772 7.31903 12.8772 9.18634C12.8772 11.0537 11.3679 12.5668 9.50535 12.5668Z" fill="#3B302A"/>
</svg>
