<svg width="24" height="24" viewBox="0 0 24 24" fill="none" xmlns="http://www.w3.org/2000/svg">
<path d="M12.0011 1.5C10.5489 1.5 9.1561 2.07691 8.1292 3.10381C7.1023 4.13071 6.52539 5.52349 6.52539 6.97575C6.52539 9.771 8.62089 12.072 11.3261 12.4057V18.7365C11.3261 18.9155 11.3973 19.0872 11.5238 19.2138C11.6504 19.3404 11.8221 19.4115 12.0011 19.4115C12.1802 19.4115 12.3519 19.3404 12.4784 19.2138C12.605 19.0872 12.6761 18.9155 12.6761 18.7365V12.4057C15.3814 12.072 17.4769 9.771 17.4769 6.97575C17.4769 5.52349 16.9 4.13071 15.8731 3.10381C14.8462 2.07691 13.4534 1.5 12.0011 1.5ZM14.9246 6.798C14.7534 6.84959 14.5686 6.8311 14.411 6.74659C14.2534 6.66207 14.1357 6.51844 14.0839 6.34725C13.9811 6.00597 13.7961 5.69518 13.545 5.44224C13.2939 5.18931 12.9844 5.00198 12.6439 4.89675C12.5592 4.8706 12.4805 4.82802 12.4122 4.77145C12.344 4.71488 12.2875 4.64542 12.2461 4.56703C12.2047 4.48865 12.1792 4.40287 12.1709 4.31461C12.1627 4.22635 12.1719 4.13733 12.198 4.05262C12.2242 3.96792 12.2667 3.8892 12.3233 3.82095C12.3799 3.7527 12.4494 3.69627 12.5277 3.65486C12.6061 3.61346 12.6919 3.5879 12.7802 3.57965C12.8684 3.57139 12.9574 3.5806 13.0421 3.60675C13.5939 3.77701 14.0954 4.0804 14.5023 4.49017C14.9092 4.89994 15.209 5.40351 15.3754 5.9565C15.4013 6.04135 15.4101 6.13047 15.4014 6.21874C15.3928 6.30702 15.3667 6.39271 15.3249 6.4709C15.283 6.54909 15.2261 6.61824 15.1574 6.67437C15.0887 6.7305 15.0096 6.77252 14.9246 6.798Z" fill="#D44F05"/>
<path d="M14.0254 16.6475V18.7362C14.0254 19.853 13.1171 20.7612 12.0004 20.7612C10.8836 20.7612 9.97538 19.853 9.97538 18.7362V16.6475C7.10588 17.0195 5.01563 18.1595 5.01563 19.5095C5.01488 21.161 8.14238 22.4997 12.0004 22.4997C15.8584 22.4997 18.9859 21.161 18.9859 19.5095C18.9859 18.1595 16.8956 17.0195 14.0254 16.6475Z" fill="#D44F05"/>
</svg>
