<svg width="24" height="24" viewBox="0 0 24 24" fill="none" xmlns="http://www.w3.org/2000/svg">
<g id="vuesax/bold/logout">
<g id="logout">
<path id="Vector" d="M7.2 2H9.8C13 2 15 4 15 7.2V11.25H8.75C8.34 11.25 8 11.59 8 12C8 12.41 8.34 12.75 8.75 12.75H15V16.8C15 20 13 22 9.8 22H7.21C4.01 22 2.01 20 2.01 16.8V7.2C2 4 4 2 7.2 2Z" fill="#637381"/>
<path id="Vector_2" d="M19.44 11.2501L17.37 9.18009C17.22 9.03009 17.15 8.84009 17.15 8.65009C17.15 8.46009 17.22 8.26009 17.37 8.12009C17.66 7.83009 18.14 7.83009 18.43 8.12009L21.78 11.4701C22.07 11.7601 22.07 12.2401 21.78 12.5301L18.43 15.8801C18.14 16.1701 17.66 16.1701 17.37 15.8801C17.08 15.5901 17.08 15.1101 17.37 14.8201L19.44 12.7501H15V11.2501H19.44Z" fill="#637381"/>
</g>
</g>
</svg>
