<svg width="16" height="16" viewBox="0 0 16 16" fill="none" xmlns="http://www.w3.org/2000/svg">
<path d="M8 10C9.10457 10 10 9.10457 10 8C10 6.89543 9.10457 6 8 6C6.89543 6 6 6.89543 6 8C6 9.10457 6.89543 10 8 10Z" fill="#C4CDD5"/>
<path d="M11.3335 2.33333H4.66683C2.66683 2.33333 1.3335 3.33333 1.3335 5.66666V5.99999V10V10.3333C1.3335 12.6667 2.66683 13.6667 4.66683 13.6667H11.3335C13.3335 13.6667 14.6668 12.6667 14.6668 10.3333V10V5.99999V5.66666C14.6668 3.33333 13.3335 2.33333 11.3335 2.33333ZM4.66683 12.6667C4.66683 10.7867 4.06016 10.0933 2.3335 10.0133V10V5.99999V5.98666C4.06016 5.90666 4.66683 5.21333 4.66683 3.33333H11.3335C11.3335 5.21333 11.9402 5.90666 13.6668 5.98666V5.99999V10V10.0133C11.9402 10.0933 11.3335 10.7867 11.3335 12.6667H4.66683Z" fill="#C4CDD5"/>
</svg>
