<svg width="24" height="24" viewBox="0 0 24 24" fill="none" xmlns="http://www.w3.org/2000/svg">
<g id="Frame">
<g id="Group">
<path id="Vector" d="M8.99997 19.5H5.24997C4.64997 19.5 4.04997 19.2 3.67497 18.75C3.29997 18.3 3.14997 17.7 3.29997 17.1L6.52497 3C6.74997 2.1 7.49997 1.5 8.47497 1.5H14.925C16.65 1.5 18.225 2.25 19.35 3.6C20.4 4.95 20.85 6.675 20.475 8.4C19.875 11.4 17.175 13.5 14.1 13.5H11.7C11.325 13.5 10.95 13.8 10.875 14.175L9.74997 18.9C9.67497 19.275 9.37497 19.5 8.99997 19.5Z" fill="black"/>
<path id="Vector_2" d="M8.99997 19.5H5.24997C4.64997 19.5 4.04997 19.2 3.67497 18.75C3.29997 18.3 3.14997 17.7 3.29997 17.1L6.52497 3C6.74997 2.1 7.49997 1.5 8.47497 1.5H14.925C16.65 1.5 18.225 2.25 19.35 3.6C20.4 4.95 20.85 6.675 20.475 8.4C19.875 11.4 17.175 13.5 14.1 13.5H11.7C11.325 13.5 10.95 13.8 10.875 14.175L9.74997 18.9C9.67497 19.275 9.37497 19.5 8.99997 19.5Z" fill="#01308A"/>
<path id="Vector_3" d="M21.975 8.475V8.7C21.225 12.375 17.925 15 14.175 15H12.3L11.25 19.275C10.95 20.325 10.05 21 9 21H7.5C7.575 21.3 7.65 21.525 7.875 21.75C8.25 22.2 8.775 22.425 9.375 22.425H12.75C13.125 22.425 13.425 22.2 13.5 21.9L14.55 17.775C14.625 17.475 14.925 17.325 15.225 17.325H17.4C20.175 17.325 22.65 15.45 23.175 12.825C23.475 11.25 23.025 9.6 21.975 8.475Z" fill="#019CDE"/>
</g>
</g>
</svg>
