<svg width="32" height="34" viewBox="0 0 32 34" fill="none" xmlns="http://www.w3.org/2000/svg">
<rect x="0.220513" y="0.400002" width="31.559" height="33.2" rx="15.7795" fill="white"/>
<rect x="0.220513" y="0.400002" width="31.559" height="33.2" rx="15.7795" stroke="#C4CDD5" stroke-width="0.441026"/>
<path d="M16.0007 10C15.0325 10 14.104 10.3846 13.4194 11.0692C12.7348 11.7538 12.3502 12.6823 12.3502 13.6505C12.3502 15.514 13.7472 17.048 15.5507 17.2705V21.491C15.5507 21.6103 15.5981 21.7248 15.6825 21.8092C15.7669 21.8936 15.8814 21.941 16.0007 21.941C16.1201 21.941 16.2345 21.8936 16.3189 21.8092C16.4033 21.7248 16.4507 21.6103 16.4507 21.491V17.2705C18.2542 17.048 19.6512 15.514 19.6512 13.6505C19.6512 12.6823 19.2666 11.7538 18.582 11.0692C17.8974 10.3846 16.9689 10 16.0007 10ZM17.9497 13.532C17.8355 13.5664 17.7124 13.5541 17.6073 13.4977C17.5022 13.4414 17.4238 13.3456 17.3892 13.2315C17.3207 13.004 17.1973 12.7968 17.0299 12.6282C16.8625 12.4595 16.6562 12.3347 16.4292 12.2645C16.3728 12.2471 16.3203 12.2187 16.2748 12.181C16.2293 12.1433 16.1916 12.0969 16.164 12.0447C16.1364 11.9924 16.1194 11.9353 16.1139 11.8764C16.1084 11.8176 16.1145 11.7582 16.132 11.7017C16.1494 11.6453 16.1778 11.5928 16.2155 11.5473C16.2532 11.5018 16.2995 11.4642 16.3518 11.4366C16.404 11.409 16.4612 11.3919 16.5201 11.3864C16.5789 11.3809 16.6383 11.3871 16.6947 11.4045C17.0626 11.518 17.3969 11.7203 17.6681 11.9934C17.9394 12.2666 18.1393 12.6023 18.2502 12.971C18.2675 13.0276 18.2734 13.087 18.2676 13.1458C18.2618 13.2047 18.2444 13.2618 18.2165 13.3139C18.1886 13.3661 18.1507 13.4122 18.1049 13.4496C18.0591 13.487 18.0064 13.515 17.9497 13.532Z" fill="#D44F05"/>
<path d="M17.3503 20.0983V21.4908C17.3503 22.2353 16.7448 22.8408 16.0003 22.8408C15.2558 22.8408 14.6503 22.2353 14.6503 21.4908V20.0983C12.7373 20.3463 11.3438 21.1063 11.3438 22.0063C11.3433 23.1073 13.4283 23.9998 16.0003 23.9998C18.5723 23.9998 20.6572 23.1073 20.6572 22.0063C20.6572 21.1063 19.2638 20.3463 17.3503 20.0983Z" fill="#D44F05"/>
</svg>
