<svg width="16" height="17" viewBox="0 0 16 17" fill="none" xmlns="http://www.w3.org/2000/svg">
<g clip-path="url(#clip0_26015_1377)">
<path d="M15.4824 6.47854L15.4828 6.47969C15.5041 6.54506 15.5057 6.61523 15.4874 6.68149L15.9694 6.81446L15.4874 6.68149C15.4691 6.74775 15.4318 6.80718 15.38 6.8524L15.3793 6.85304L11.8886 9.91375L11.6647 10.11L11.7306 10.4004L12.7599 14.9346L12.76 14.9348C12.7752 15.0019 12.7705 15.072 12.7462 15.1363C12.722 15.2007 12.6794 15.2565 12.6236 15.2968L12.6234 15.297C12.5092 15.3798 12.3589 15.3858 12.2399 15.3142L12.2387 15.3135L8.25665 12.9327L8.00012 12.7793L7.74356 12.9326L3.76008 15.3134L3.75993 15.3135C3.70257 15.3478 3.64123 15.364 3.58065 15.364C3.50983 15.364 3.43845 15.3421 3.37548 15.2966C3.26211 15.2146 3.20819 15.0733 3.2396 14.9341C3.2396 14.9341 3.23961 14.9341 3.23962 14.9341L4.26884 10.4004L4.33475 10.1101L4.11092 9.91378L0.620209 6.85245L0.619261 6.85162C0.514263 6.76001 0.473649 6.61406 0.517367 6.4796L0.517535 6.47908C0.538665 6.41385 0.578475 6.35626 0.63203 6.31344C0.685544 6.27066 0.750431 6.24451 0.818657 6.23823C0.818708 6.23822 0.818759 6.23822 0.81881 6.23821L5.43718 5.81893L5.73446 5.79194L5.85175 5.51745L7.67762 1.2446C7.67765 1.24452 7.67769 1.24444 7.67772 1.24436C7.73393 1.11351 7.86031 1.03085 8.00007 1.03085C8.13991 1.03085 8.2663 1.11358 8.32253 1.24376C8.32261 1.24393 8.32268 1.24411 8.32276 1.24429L10.1484 5.51738L10.2657 5.7919L10.563 5.81889L15.181 6.23825L15.1817 6.23831C15.2498 6.24441 15.3147 6.27044 15.3682 6.31316C15.4217 6.35588 15.4614 6.4134 15.4824 6.47854Z" stroke="#637381"/>
</g>
<defs>
<clipPath id="clip0_26015_1377">
<rect width="16" height="16" fill="white" transform="translate(0 0.5)"/>
</clipPath>
</defs>
</svg>
