<svg width="16" height="16" viewBox="0 0 16 16" fill="none" xmlns="http://www.w3.org/2000/svg">
<g clip-path="url(#clip0_26024_4310)">
<path d="M15.9583 5.82501C15.9071 5.66645 15.8104 5.52646 15.6802 5.42249C15.5501 5.31852 15.3922 5.25515 15.2262 5.2403L10.6082 4.82095L8.78209 0.546778C8.6474 0.233552 8.34077 0.030859 8.00007 0.030859C7.65937 0.030859 7.35271 0.233583 7.21808 0.54756L5.39197 4.82098L0.7732 5.2403C0.607451 5.25549 0.449802 5.31898 0.3198 5.42292C0.189799 5.52686 0.0931609 5.66666 0.0418688 5.82501C-0.0634776 6.14901 0.0338061 6.50437 0.290531 6.72837L3.78125 9.7897L2.75191 14.3239C2.67659 14.6573 2.80597 15.0019 3.0826 15.2018C3.23126 15.3093 3.40524 15.364 3.58065 15.364C3.7319 15.364 3.8819 15.3232 4.01659 15.2426L8.00007 12.8618L11.9821 15.2426C12.2735 15.4179 12.6408 15.4019 12.9168 15.2018C13.0519 15.104 13.1553 14.9687 13.2141 14.8126C13.2729 14.6565 13.2845 14.4865 13.2475 14.3239L12.2182 9.7897L15.7089 6.729C15.8345 6.61933 15.925 6.47518 15.9694 6.31446C16.0137 6.15375 16.0099 5.98355 15.9583 5.82501Z" fill="#FFC107"/>
</g>
<defs>
<clipPath id="clip0_26024_4310">
<rect width="16" height="16" fill="white"/>
</clipPath>
</defs>
</svg>
