<svg width="24" height="24" viewBox="0 0 24 24" fill="none" xmlns="http://www.w3.org/2000/svg">
<g id="Frame" clip-path="url(#clip0_26093_2843)">
<g id="Group">
<path id="Vector" fill-rule="evenodd" clip-rule="evenodd" d="M24 12.1667C24 10.46 23.1733 9.11336 21.5933 9.11336C20.0067 9.11336 19.0467 10.46 19.0467 12.1534C19.0467 14.1601 20.18 15.1734 21.8067 15.1734C22.6 15.1734 23.2 14.9934 23.6533 14.74V13.4067C23.2 13.6333 22.68 13.7734 22.02 13.7734C21.3733 13.7734 20.8 13.5467 20.7267 12.76H23.9866C23.9867 12.6733 24 12.3267 24 12.1667ZM20.7067 11.5333C20.7067 10.78 21.1667 10.4666 21.5867 10.4666C21.9934 10.4666 22.4267 10.78 22.4267 11.5333H20.7067ZM16.4733 9.11336C15.82 9.11336 15.4 9.42001 15.1667 9.63337L15.08 9.22005H13.6133V16.9934L15.28 16.6401L15.2867 14.7534C15.5266 14.9268 15.88 15.1734 16.4666 15.1734C17.66 15.1734 18.7466 14.2134 18.7466 12.1001C18.74 10.1667 17.64 9.11336 16.4733 9.11336ZM16.0733 13.7067C15.68 13.7067 15.4467 13.5667 15.2867 13.3934L15.28 10.92C15.4533 10.7266 15.6933 10.5933 16.0733 10.5933C16.68 10.5933 17.1 11.2733 17.1 12.1467C17.1 13.04 16.6867 13.7067 16.0733 13.7067ZM11.32 8.72L12.9933 8.36002V7.00669L11.32 7.36003V8.72ZM11.32 9.22666H12.9933V15.06H11.32V9.22666ZM9.52669 9.72L9.42001 9.22666H7.98002V15.06H9.64669V11.1066C10.04 10.5933 10.7067 10.6867 10.9133 10.76V9.22666C10.7 9.14669 9.92 9.00002 9.52669 9.72ZM6.19335 7.78001L4.56667 8.12668L4.56001 13.4667C4.56001 14.4533 5.3 15.18 6.28668 15.18C6.83336 15.18 7.23333 15.08 7.45335 14.96V13.6067C7.24003 13.6933 6.1867 14 6.1867 13.0134V10.6467H7.45335V9.2267H6.1867L6.19335 7.78001ZM1.68668 10.92C1.68668 10.66 1.9 10.56 2.25333 10.56C2.75999 10.56 3.39999 10.7133 3.90669 10.9867V9.42001C3.35335 9.20003 2.80667 9.11336 2.25333 9.11336C0.900012 9.11336 0 9.82002 0 11C0 12.84 2.53335 12.5467 2.53335 13.34C2.53335 13.6467 2.26669 13.7467 1.89335 13.7467C1.34001 13.7467 0.63335 13.52 0.0733565 13.2134V14.8C0.693348 15.0667 1.32004 15.18 1.89335 15.18C3.28 15.18 4.23335 14.4933 4.23335 13.3C4.22669 11.3134 1.68668 11.6667 1.68668 10.92Z" fill="#635BFF"/>
</g>
</g>
<defs>
<clipPath id="clip0_26093_2843">
<rect width="24" height="24" fill="white"/>
</clipPath>
</defs>
</svg>
