<svg width="24" height="24" viewBox="0 0 24 24" fill="none" xmlns="http://www.w3.org/2000/svg">
<path d="M17.6633 5.52898C18.8653 4.89578 19.8411 3.98652 20.485 2.89953C20.5387 2.80906 20.5674 2.70601 20.5682 2.60085C20.5691 2.49569 20.5422 2.39217 20.4901 2.3008C20.438 2.20944 20.3627 2.13348 20.2718 2.08065C20.1808 2.02781 20.0776 1.99999 19.9724 2H4.02696C3.92181 2 3.81853 2.02783 3.72761 2.08066C3.6367 2.1335 3.56138 2.20945 3.50931 2.30081C3.45725 2.39217 3.43029 2.49568 3.43117 2.60083C3.43206 2.70598 3.46075 2.80902 3.51435 2.89949C4.15833 3.98648 5.13411 4.89578 6.33614 5.52895C7.36833 6.0727 8.53208 6.39367 9.7311 6.4693V8H6.91521C5.86235 8 4.97192 8.78805 4.84396 9.83305L3.64067 19.6596C3.60484 19.9529 3.63165 20.2504 3.71933 20.5325C3.80701 20.8146 3.95357 21.0749 4.14931 21.2962C4.34515 21.5174 4.58571 21.6945 4.85508 21.8158C5.12445 21.9371 5.4165 21.9999 5.71192 22H18.2878C18.5832 21.9999 18.8753 21.9371 19.1446 21.8158C19.414 21.6945 19.6545 21.5174 19.8504 21.2962C20.0461 21.075 20.1927 20.8147 20.2804 20.5326C20.3681 20.2504 20.3949 19.9529 20.359 19.6597L19.1558 9.83313C19.0278 8.78809 18.1374 8.00008 17.0845 8.00008H14.2683V6.46938C15.4673 6.39367 16.6311 6.0727 17.6633 5.52898ZM16.8825 15C16.8825 17.6923 14.6922 19.8827 11.9999 19.8827C9.30751 19.8827 7.11716 17.6923 7.11716 15C7.11716 12.3077 9.30755 10.1173 11.9999 10.1173C14.6922 10.1173 16.8825 12.3077 16.8825 15Z" fill="#637381"/>
<path d="M11.9996 11.3089C9.96437 11.3089 8.30859 12.9647 8.30859 15C8.30859 17.0352 9.96441 18.6911 11.9996 18.6911C14.0349 18.6911 15.6907 17.0352 15.6907 15C15.6907 12.9647 14.0349 11.3089 11.9996 11.3089ZM12.421 15.4213L10.9864 16.8558C10.8701 16.9721 10.7176 17.0304 10.5652 17.0304C10.4127 17.0304 10.2602 16.9721 10.1439 16.8558C9.91117 16.6232 9.91117 16.2459 10.1439 16.0132L11.5784 14.5787C11.8111 14.3461 12.1883 14.3461 12.421 14.5787C12.6536 14.8113 12.6536 15.1886 12.421 15.4213Z" fill="#637381"/>
</svg>
